<svg width="24" height="23" viewBox="0 0 24 23" fill="none" xmlns="http://www.w3.org/2000/svg">
<path d="M5.81827 6.54571C6.01116 6.54571 6.19614 6.46908 6.33253 6.33269C6.46892 6.1963 6.54554 6.01132 6.54554 5.81843V1.45481C6.54554 1.26193 6.46892 1.07694 6.33253 0.940552C6.19614 0.804162 6.01116 0.727539 5.81827 0.727539C5.62539 0.727539 5.44041 0.804162 5.30402 0.940552C5.16763 1.07694 5.091 1.26193 5.091 1.45481V5.81843C5.091 6.01132 5.16763 6.1963 5.30402 6.33269C5.44041 6.46908 5.62539 6.54571 5.81827 6.54571Z" fill="#848484"/>
<path d="M20.3638 9.09231C18.9171 9.09231 17.5298 8.51764 16.5068 7.49472C15.4839 6.47179 14.9092 5.08441 14.9092 3.63778H7.41835V5.81959C7.41835 6.24394 7.24978 6.6509 6.94972 6.95096C6.64966 7.25102 6.2427 7.41959 5.81835 7.41959C5.39401 7.41959 4.98704 7.25102 4.68699 6.95096C4.38693 6.6509 4.21836 6.24394 4.21836 5.81959V3.63778H1.30927C1.1362 3.63581 0.96449 3.66857 0.804297 3.73411C0.644104 3.79966 0.498682 3.89667 0.376632 4.0194C0.254582 4.14212 0.158383 4.28808 0.0937238 4.44864C0.0290646 4.60919 -0.00274142 4.78108 0.000186946 4.95414V21.2305C-0.00270251 21.4005 0.0279281 21.5694 0.0903291 21.7276C0.15273 21.8857 0.245679 22.03 0.363867 22.1523C0.482055 22.2745 0.623167 22.3723 0.779142 22.44C0.935118 22.5077 1.1029 22.544 1.27291 22.5468H22.0001C22.1701 22.544 22.3379 22.5077 22.4939 22.44C22.6499 22.3723 22.791 22.2745 22.9092 22.1523C23.0274 22.03 23.1203 21.8857 23.1827 21.7276C23.2451 21.5694 23.2757 21.4005 23.2729 21.2305V8.24868C22.4031 8.80073 21.3939 9.09338 20.3638 9.09231ZM5.81835 18.1832H4.36381V16.7287H5.81835V18.1832ZM5.81835 14.5468H4.36381V13.0923H5.81835V14.5468ZM5.81835 10.9105H4.36381V9.45595H5.81835V10.9105ZM10.182 18.1832H8.72744V16.7287H10.182V18.1832ZM10.182 14.5468H8.72744V13.0923H10.182V14.5468ZM10.182 10.9105H8.72744V9.45595H10.182V10.9105ZM14.5456 18.1832H13.0911V16.7287H14.5456V18.1832ZM14.5456 14.5468H13.0911V13.0923H14.5456V14.5468ZM14.5456 10.9105H13.0911V9.45595H14.5456V10.9105ZM18.9092 18.1832H17.4547V16.7287H18.9092V18.1832ZM18.9092 14.5468H17.4547V13.0923H18.9092V14.5468ZM18.9092 10.9105H17.4547V9.45595H18.9092V10.9105Z" fill="#848484"/>
<path d="M20.3637 7.27271C22.372 7.27271 24.0001 5.64466 24.0001 3.63635C24.0001 1.62805 22.372 0 20.3637 0C18.3554 0 16.7274 1.62805 16.7274 3.63635C16.7274 5.64466 18.3554 7.27271 20.3637 7.27271Z" fill="#848484"/>
</svg>
