<svg width="14" height="14" viewBox="0 0 14 14" fill="none" xmlns="http://www.w3.org/2000/svg">
<path fill-rule="evenodd" clip-rule="evenodd" d="M7.5035 0.20495C7.37223 0.0737207 7.19422 0 7.0086 0C6.82299 0 6.64497 0.0737207 6.5137 0.20495L1.6137 5.10495L0.213702 6.50495C0.146845 6.56952 0.0935171 6.64676 0.0568308 6.73217C0.0201445 6.81757 0.000834101 6.90942 2.64297e-05 7.00237C-0.000781242 7.09532 0.01693 7.18749 0.0521266 7.27352C0.0873232 7.35955 0.1393 7.4377 0.205025 7.50343C0.27075 7.56915 0.348906 7.62113 0.434934 7.65633C0.520961 7.69152 0.613137 7.70923 0.706083 7.70843C0.799028 7.70762 0.890882 7.68831 0.976285 7.65162C1.06169 7.61494 1.13893 7.56161 1.2035 7.49475L1.4086 7.28965V11.8998C1.4086 12.4568 1.62985 12.9909 2.02368 13.3848C2.4175 13.7786 2.95165 13.9999 3.5086 13.9999H10.5086C11.0656 13.9999 11.5997 13.7786 11.9935 13.3848C12.3874 12.9909 12.6086 12.4568 12.6086 11.8998V7.28965L12.8137 7.49475C12.9457 7.62226 13.1225 7.69282 13.3061 7.69122C13.4896 7.68963 13.6652 7.61601 13.795 7.48622C13.9248 7.35644 13.9984 7.18087 14 6.99733C14.0016 6.81379 13.931 6.63697 13.8035 6.50495L7.5035 0.20495Z" fill="#263238"/>
</svg>
