<svg width="35" height="32" viewBox="0 0 35 32" fill="none" xmlns="http://www.w3.org/2000/svg">
<path d="M17.6135 10.6644C14.5307 10.6644 12.0149 13.062 12.0149 16C12.0149 18.938 14.5307 21.3356 17.6135 21.3356C20.6963 21.3356 23.2121 18.938 23.2121 16C23.2121 13.062 20.6963 10.6644 17.6135 10.6644ZM34.405 16C34.405 13.7905 34.426 11.601 34.2958 9.39554C34.1656 6.83381 33.5524 4.56027 31.5868 2.68701C29.617 0.809737 27.2356 0.229345 24.5476 0.105261C22.2293 -0.018823 19.9319 0.00119058 17.6177 0.00119058C15.2993 0.00119058 13.0019 -0.018823 10.6877 0.105261C7.99972 0.229345 5.61413 0.813739 3.64854 2.68701C1.67875 4.56427 1.06975 6.83381 0.93955 9.39554C0.809351 11.605 0.830351 13.7945 0.830351 16C0.830351 18.2055 0.809351 20.399 0.93955 22.6045C1.06975 25.1662 1.68295 27.4397 3.64854 29.313C5.61833 31.1903 7.99972 31.7707 10.6877 31.8947C13.0061 32.0188 15.3035 31.9988 17.6177 31.9988C19.9361 31.9988 22.2335 32.0188 24.5476 31.8947C27.2356 31.7707 29.6212 31.1863 31.5868 29.313C33.5566 27.4357 34.1656 25.1662 34.2958 22.6045C34.4302 20.399 34.405 18.2095 34.405 16ZM17.6135 24.2095C12.8465 24.2095 8.99932 20.5431 8.99932 16C8.99932 11.4569 12.8465 7.79045 17.6135 7.79045C22.3805 7.79045 26.2276 11.4569 26.2276 16C26.2276 20.5431 22.3805 24.2095 17.6135 24.2095ZM26.5804 9.37152C25.4674 9.37152 24.5686 8.51494 24.5686 7.45423C24.5686 6.39351 25.4674 5.53693 26.5804 5.53693C27.6934 5.53693 28.5922 6.39351 28.5922 7.45423C28.5926 7.7061 28.5408 7.95556 28.4398 8.18832C28.3388 8.42108 28.1906 8.63256 28.0037 8.81066C27.8169 8.98876 27.5949 9.12998 27.3507 9.22622C27.1065 9.32246 26.8447 9.37184 26.5804 9.37152Z" fill="white"/>
</svg>
