<svg width="34" height="32" viewBox="0 0 34 32" fill="none" xmlns="http://www.w3.org/2000/svg">
<path d="M31.2978 7.39981C26.275 -0.000244619 16.0201 -2.20026 8.06726 2.39977C0.323732 6.99981 -2.18768 16.9999 2.83515 24.3999L3.25371 24.9999L1.57944 31L7.85797 29.4L8.48582 29.8C11.2065 31.2 14.1365 32 17.0665 32C20.2058 32 23.345 31.2 26.0657 29.6C33.8092 24.7999 36.1114 14.9999 31.2978 7.39981ZM26.9029 22.7999C26.0657 23.9999 25.0193 24.7999 23.5543 24.9999C22.7172 24.9999 21.6707 25.3999 17.4851 23.7999C13.9272 22.1999 10.9972 19.5999 8.90439 16.5999C7.64869 15.1999 7.02083 13.3999 6.81155 11.5998C6.81155 9.99983 7.4394 8.59982 8.48582 7.59981C8.90439 7.19981 9.32296 6.99981 9.74153 6.99981H10.788C11.2065 6.99981 11.6251 6.99981 11.8344 7.79982C12.2529 8.79982 13.2994 11.1998 13.2994 11.3998C13.5086 11.5998 13.5086 11.9998 13.2994 12.1999C13.5086 12.5999 13.2994 12.9999 13.0901 13.1999C12.8808 13.3999 12.6715 13.7999 12.4622 13.9999C12.0437 14.1999 11.8344 14.5999 12.0437 14.9999C12.8808 16.1999 13.9272 17.3999 14.9736 18.3999C16.2293 19.3999 17.4851 20.1999 18.95 20.7999C19.3686 20.9999 19.7872 20.9999 19.9965 20.5999C20.2057 20.1999 21.2522 19.1999 21.6707 18.7999C22.0893 18.3999 22.2986 18.3999 22.7172 18.5999L26.0657 20.1999C26.4843 20.3999 26.9029 20.5999 27.1121 20.7999C27.3214 21.3999 27.3214 22.1999 26.9029 22.7999Z" fill="white"/>
</svg>
