<svg width="17" height="10" viewBox="0 0 17 10" fill="none" xmlns="http://www.w3.org/2000/svg">
<path d="M8.5 9.99998C8.29671 9.99998 8.09952 9.96181 7.90843 9.88547C7.71734 9.80914 7.55877 9.70735 7.43273 9.58013L0.419282 2.55725C0.13976 2.27735 0 1.92111 0 1.48855C0 1.05598 0.13976 0.699743 0.419282 0.419846C0.698804 0.139948 1.05456 0 1.48655 0C1.91853 0 2.27429 0.139948 2.55381 0.419846L8.5 6.37403L14.4462 0.419846C14.7257 0.139948 15.0815 0 15.5135 0C15.9454 0 16.3012 0.139948 16.5807 0.419846C16.8602 0.699743 17 1.05598 17 1.48855C17 1.92111 16.8602 2.27735 16.5807 2.55725L9.56726 9.58013C9.4148 9.7328 9.24963 9.8412 9.07175 9.90532C8.89387 9.96944 8.70329 10.001 8.5 9.99998Z" fill="white"/>
</svg>
