<svg width="30" height="32" viewBox="0 0 30 32" fill="none" xmlns="http://www.w3.org/2000/svg">
<path d="M25.4775 6.84309C25.2569 6.73138 25.0421 6.60893 24.834 6.47619C24.2291 6.08472 23.6746 5.6235 23.1822 5.10245C21.9488 3.72161 21.4883 2.32085 21.3198 1.34103H21.3256C21.1847 0.526173 21.2428 0 21.2529 0H15.638V21.2503C15.638 21.5347 15.638 21.8177 15.6264 22.0964C15.6264 22.1305 15.6221 22.1618 15.6206 22.2002C15.6206 22.2145 15.6206 22.2315 15.6163 22.2472V22.26C15.5573 23.0222 15.3078 23.7586 14.8899 24.4044C14.4719 25.0501 13.8982 25.5854 13.2192 25.9631C12.5109 26.3575 11.7097 26.5644 10.8948 26.5632C8.27985 26.5632 6.15883 24.4756 6.15883 21.8973C6.15883 19.3177 8.27985 17.23 10.8948 17.23C11.3902 17.23 11.8827 17.3068 12.3534 17.4576L12.3606 11.8602C10.9311 11.6797 9.47894 11.7912 8.0957 12.1877C6.71245 12.5842 5.4282 13.2572 4.324 14.164C3.35626 14.9867 2.54262 15.9685 1.9197 17.0651C1.6829 17.4647 0.788002 19.0731 0.680498 21.6812C0.612219 23.1601 1.06693 24.696 1.28339 25.3288V25.343C1.4185 25.7156 1.9473 26.9898 2.80733 28.0635C3.50087 28.9253 4.3203 29.6824 5.23924 30.3104V30.2962L5.25231 30.3104C7.96896 32.1165 10.9834 31.9984 10.9834 31.9984C11.505 31.9771 13.2526 31.9984 15.2371 31.0783C17.438 30.0573 18.6903 28.5371 18.6903 28.5371C19.4909 27.6285 20.1276 26.5931 20.573 25.4753C21.0815 24.167 21.25 22.5998 21.25 21.9741V10.6984C21.3183 10.7382 22.2263 11.3255 22.2263 11.3255C22.2263 11.3255 23.5338 12.1461 25.572 12.6793C27.0334 13.059 29.0048 13.1401 29.0048 13.1401V7.68355C28.3148 7.75749 26.9129 7.54418 25.4761 6.84451L25.4775 6.84309Z" fill="white"/>
</svg>
