<svg width="31" height="23" viewBox="0 0 31 23" fill="none" xmlns="http://www.w3.org/2000/svg">
<path d="M15.3744 15.3758C17.6388 15.3758 19.4744 13.5401 19.4744 11.2758C19.4744 9.01141 17.6388 7.17578 15.3744 7.17578C13.11 7.17578 11.2744 9.01141 11.2744 11.2758C11.2744 13.5401 13.11 15.3758 15.3744 15.3758Z" fill="#848484"/>
<path d="M30.6881 10.9265C29.4825 7.80809 27.3896 5.11128 24.668 3.16939C21.9465 1.22749 18.7155 0.125637 15.3746 0C12.0336 0.125637 8.80266 1.22749 6.0811 3.16939C3.35953 5.11128 1.26663 7.80809 0.0610639 10.9265C-0.0203546 11.1517 -0.0203546 11.3983 0.0610639 11.6235C1.26663 14.7419 3.35953 17.4387 6.0811 19.3806C8.80266 21.3225 12.0336 22.4244 15.3746 22.55C18.7155 22.4244 21.9465 21.3225 24.668 19.3806C27.3896 17.4387 29.4825 14.7419 30.6881 11.6235C30.7695 11.3983 30.7695 11.1517 30.6881 10.9265ZM15.3746 17.9375C14.0568 17.9375 12.7687 17.5468 11.6731 16.8147C10.5774 16.0826 9.72349 15.042 9.21922 13.8246C8.71495 12.6072 8.58301 11.2676 8.84008 9.97521C9.09716 8.68281 9.7317 7.49567 10.6635 6.5639C11.5952 5.63213 12.7824 4.99759 14.0748 4.74052C15.3672 4.48344 16.7068 4.61538 17.9242 5.11965C19.1416 5.62392 20.1821 6.47787 20.9142 7.57351C21.6463 8.66916 22.0371 9.95728 22.0371 11.275C22.0344 13.0412 21.3315 14.7342 20.0827 15.9831C18.8338 17.232 17.1407 17.9348 15.3746 17.9375Z" fill="#848484"/>
</svg>
